PathFileType	4	(X/Y/Z)	Exemple_fichier.trc																																					
DataRate	CameraRate	NumFrames	NumMarkers	Units	OrigDataRate	OrigDataStartFrame	OrigNumFrames																																	
100	100	12	13	m	100	376	1000																																	
Frame#	Time	C7			T10			CLAV			STRN			RSHO			RUPA			RELB			RFRA			RWRA			RWRB			RFIN0			RFINx			RFINy		
		X1	Y1	Z1	X2	Y2	Z2	X3	Y3	Z3	X4	Y4	Z4	X5	Y5	Z5	X6	Y6	Z6	X7	Y7	Z7	X8	Y8	Z8	X9	Y9	Z9	X10	Y10	Z10	X11	Y11	Z11	X12	Y12	Z12	X13	Y13	Z13
																																								
376	3.75	0.440881	1.293693	-0.1025731	0.4426362	1.152474	-0.06598179	0.4516431	1.227679	-0.2226467	0.4508442	1.097203	-0.3270975	0.5959506	1.253664	-0.1676201	0.7163722	1.104555	-0.2441611	0.7699172	1.048242	-0.2514791	0.6687459	1.043056	-0.3911511	0.6201988	1.014458	-0.4213505	0.6562253	1.030434	-0.451223	0.6186212	1.031476	-0.4917409	0.602354	1.034992	-0.5039193	0.5976901	1.036595	-0.4680973
377	3.76	0.4409204	1.293752	-0.1026462	0.4426732	1.152537	-0.06602163	0.4516567	1.227732	-0.2227363	0.4508369	1.097219	-0.3271117	0.5960077	1.253719	-0.1677355	0.7163484	1.104426	-0.2441763	0.7698737	1.048084	-0.251414	0.6687042	1.042646	-0.3910903	0.6201687	1.014022	-0.4212413	0.6562228	1.029903	-0.451151	0.6186371	1.030895	-0.4917004	0.6023663	1.034341	-0.5038833	0.5976896	1.036049	-0.4680737
378	3.77	0.440958	1.293807	-0.1027118	0.4427084	1.152595	-0.06605605	0.4516682	1.227786	-0.2228197	0.450825	1.097237	-0.3271241	0.5960681	1.253778	-0.1678479	0.716323	1.104303	-0.2441956	0.7698289	1.047932	-0.2513572	0.6686599	1.042247	-0.3910376	0.6201341	1.013603	-0.4211419	0.6562216	1.029388	-0.4510873	0.6186621	1.030343	-0.4916788	0.6023797	1.033705	-0.5038602	0.5976913	1.03552	-0.4680656
379	3.78	0.4409933	1.293859	-0.1027686	0.442742	1.152648	-0.06608139	0.4516778	1.227841	-0.2228967	0.4508097	1.097256	-0.3271344	0.5961299	1.253838	-0.1679559	0.7162939	1.104185	-0.2442183	0.7697824	1.047784	-0.2513078	0.668618	1.04186	-0.3909953	0.6200904	1.0132	-0.421052	0.6562215	1.028885	-0.451032	0.6186967	1.029816	-0.491677	0.6023941	1.033082	-0.50385	0.5976961	1.035004	-0.4680724
380	3.79	0.4410249	1.293906	-0.1028155	0.442774	1.152695	-0.06609485	0.4516857	1.227895	-0.2229672	0.4507923	1.097274	-0.327142	0.5961901	1.253897	-0.1680578	0.7162595	1.10407	-0.2442436	0.7697335	1.047639	-0.2512647	0.6685808	1.041483	-0.3909646	0.6200399	1.012811	-0.4209732	0.6562221	1.028393	-0.4509851	0.618739	1.029313	-0.4916932	0.6024093	1.032471	-0.5038522	0.5977049	1.0345	-0.4680925
381	3.8	0.4410517	1.293947	-0.102852	0.442805	1.152739	-0.0660959	0.4516921	1.227949	-0.2230312	0.4507744	1.09729	-0.327146	0.596246	1.253951	-0.1681516	0.7162191	1.103958	-0.2442705	0.7696815	1.047496	-0.2512266	0.6685486	1.041117	-0.3909456	0.6199882	1.012433	-0.4209074	0.6562229	1.027909	-0.4509463	0.6187851	1.028826	-0.4917238	0.602425	1.03187	-0.5038653	0.5977187	1.034008	-0.4681241
382	3.81	0.4410734	1.293983	-0.1028783	0.4428362	1.152779	-0.06608618	0.4516972	1.228002	-0.2230887	0.4507573	1.097305	-0.3271454	0.5962965	1.254001	-0.1682355	0.7161733	1.103849	-0.2442978	0.769626	1.047355	-0.2511923	0.6685204	1.040759	-0.3909369	0.6199391	1.012062	-0.4208553	0.6562234	1.027435	-0.4509151	0.6188299	1.028353	-0.491764	0.6024409	1.031283	-0.5038872	0.5977383	1.033532	-0.4681655
383	3.82	0.4410902	1.294013	-0.1028953	0.4428683	1.152818	-0.06606843	0.4517018	1.228055	-0.2231394	0.4507418	1.097316	-0.3271393	0.5963417	1.254045	-0.1683081	0.7161231	1.103741	-0.244324	0.7695669	1.047216	-0.2511609	0.6684948	1.040411	-0.3909364	0.6198944	1.011699	-0.4208155	0.656223	1.026972	-0.4508905	0.6188692	1.027889	-0.4918104	0.6024565	1.030711	-0.5039153	0.597764	1.033072	-0.4682144
384	3.83	0.4411031	1.294038	-0.1029037	0.4429018	1.152854	-0.06604495	0.4517069	1.228106	-0.2231829	0.4507283	1.097324	-0.327127	0.5963825	1.254083	-0.1683685	0.7160697	1.103635	-0.244347	0.7695046	1.047078	-0.2511307	0.6684704	1.040072	-0.3909414	0.619855	1.011341	-0.4207852	0.6562213	1.026521	-0.4508712	0.6188998	1.027437	-0.4918593	0.6024719	1.030157	-0.5039462	0.5977954	1.032631	-0.468268
385	3.84	0.4411133	1.294059	-0.1029045	0.4429367	1.152888	-0.06601652	0.4517138	1.228155	-0.2232186	0.4507167	1.097329	-0.3271084	0.5964203	1.254115	-0.1684161	0.7160145	1.103528	-0.2443646	0.7694393	1.046942	-0.2511003	0.6684461	1.039742	-0.3909485	0.6198211	1.010991	-0.420761	0.6562184	1.026086	-0.4508552	0.6189199	1.026997	-0.4919062	0.6024868	1.029624	-0.503977	0.5978307	1.032211	-0.4683227
386	3.85	0.4411221	1.294075	-0.1028979	0.4429721	1.15292	-0.06598233	0.4517233	1.228204	-0.2232464	0.4507066	1.097331	-0.3270835	0.5964563	1.25414	-0.1684501	0.7159587	1.103421	-0.2443745	0.7693711	1.046807	-0.2510677	0.6684212	1.039423	-0.3909541	0.6197921	1.01065	-0.420739	0.6562149	1.025671	-0.4508404	0.6189284	1.026568	-0.4919468	0.6025013	1.029115	-0.5040052	0.5978669	1.031811	-0.4683747
387	3.86	0.4411307	1.294088	-0.102884	0.4430061	1.152949	-0.06594053	0.4517363	1.228251	-0.2232664	0.4506974	1.097332	-0.3270529	0.5964916	1.254158	-0.1684699	0.7159038	1.103314	-0.2443746	0.7693	1.046672	-0.2510309	0.6683952	1.039117	-0.3909545	0.6197671	1.01032	-0.4207156	0.6562112	1.025278	-0.4508246	0.6189254	1.026152	-0.4919782	0.6025153	1.028633	-0.504029	0.5979003	1.031427	-0.4684202
